<svg height="240.147" viewBox="0 0 3369.322 240.147" width="3369.322" xmlns="http://www.w3.org/2000/svg"><g fill="none" fill-rule="evenodd"><g fill-rule="nonzero"><path d="m0 1.341h562.656v237.955h-562.656z" fill="#1994d2"/><g fill="#fff" transform="translate(57.144 57.121)"><path d="m419.595 109.134v-53.394c0-3.845-1.396-6.638-4.18-8.376-2.787-1.737-6.263-2.61-10.423-2.61-2.037 0-3.982.161-5.843.484-1.859.321-3.406.706-4.648 1.166v62.73h-22.433v-71.791c3.983-1.556 8.894-2.86 14.733-3.914 5.846-1.052 12.171-1.577 18.987-1.577 11.769 0 20.753 1.895 26.952 5.698 6.194 3.794 9.292 9.771 9.292 17.916v53.668z"/><path d="m220.952 109.134v-76.331c7.48 0 15.084.413 22.438 1.313v75.018z"/><path d="m244.581 12.632c0 2.743-1.219 5.104-3.653 7.07-2.433 1.966-5.374 2.949-8.825 2.949s-6.375-.983-8.761-2.949c-2.39-1.966-3.586-4.327-3.586-7.07 0-2.746 1.196-5.104 3.586-7.072 2.386-1.969 5.31-2.949 8.761-2.949s6.392.98 8.825 2.949c2.434 1.968 3.653 4.326 3.653 7.072"/><path d="m207.035 46.814c-3.101-1.008-6.396-1.556-9.891-1.645-3.499-.094-6.352.366-8.564 1.37v62.597h-22.435v-71.793c4.16-1.74 9.006-3.09 14.534-4.052 5.532-.957 12.324-1.439 20.381-1.439 1.77 0 3.628.041 5.576.137 1.946.092 3.495.23 4.648.411z"/><path d="m72.618 68.779c0 12.905-3.674 22.949-11.021 30.136-7.347 7.185-17.921 10.775-31.73 10.775-7.077 0-13.12-.525-18.118-1.581-5.005-1.055-8.919-2.358-11.749-3.914v-104.195h22.302v35.01c1.946-.731 4.247-1.395 6.903-1.993 2.656-.594 5.887-.894 9.689-.894 4.956 0 9.519.894 13.677 2.681 4.159 1.783 7.722 4.276 10.687 7.478 2.963 3.208 5.267 7.047 6.903 11.536 1.637 4.477 2.457 9.469 2.457 14.961m-22.839 1.241c0-3.664-.307-7.074-.928-10.232-.616-3.161-1.634-5.904-3.05-8.239-1.418-2.331-3.211-4.138-5.378-5.418-2.166-1.282-4.845-1.924-8.033-1.924-4.159 0-7.524.598-10.088 1.787v49.555c.974.456 2.168.822 3.582 1.098 1.418.274 3.142.41 5.179.41 6.286 0 10.972-2.469 14.073-7.408 3.099-4.942 4.643-11.487 4.643-19.629"/><path d="m153.871 109.134c0 .042-35.248.533-38.445.533-5.115 0-9.825-.859-14.133-2.572-4.305-1.717-8.007-4.155-11.105-7.31-3.091-3.151-5.516-6.984-7.265-11.483-1.748-4.498-2.626-9.583-2.626-15.236 0-6.22.898-11.855 2.695-16.913 1.792-5.055 4.505-9.395 8.138-13.012 3.636-3.62 8.167-6.405 13.599-8.355 5.424-1.941 11.774-2.917 19.041-2.917 6.37 0 12.251.534 17.632 1.597 5.385 1.07 9.506 1.877 12.469 3.458zm-22.564-63.209c-.987-.47-2.195-.882-3.634-1.258-1.433-.369-3.186-.555-5.248-.555-6.371 0-11.126 2.37-14.268 7.098-3.14 4.737-4.712 11.648-4.712 20.741 0 17.257 6.149 25.885 18.439 25.885 1.799 0 3.545-.158 5.25-.49 1.705-.324 3.098-.769 4.173-1.318z"/><path d="m309.236 125.082c29.102-.721 52.131-25.704 51.436-55.798-.243-10.407-3.289-20.059-8.371-28.206-10.118-.144-20.297 2.895-24.093 3.94 6.96 5.887 11.482 14.757 11.713 24.779.321 13.884-7.679 25.965-19.291 31.142-1.238-2.983-1.701-4.098-2.915-7.01-11.357 6.882-27.883 14.552-46.828 15.39 9.823 10.058 23.432 16.129 38.349 15.763"/><path d="m306.703 16.081c-29.106.72-52.13 25.701-51.436 55.794.238 10.407 3.284 20.062 8.369 28.206 10.12.147 20.297-2.895 24.086-3.935-6.951-5.892-11.477-14.763-11.704-24.784-.323-13.881 7.677-25.959 19.289-31.141 1.235 2.987 1.698 4.102 2.917 7.01 11.353-6.882 27.878-14.552 46.826-15.391-9.823-10.05-23.44-16.128-38.347-15.759"/></g></g><g transform="translate(2112)"><path d="m0 0h238.314v238.318h-238.314z" fill="#2c6fb6"/><path d="m86.33 200.608v-85.394l151.984.138v23.588l-17.564 18.771 17.564 18.944v24.09h-28.046l-14.905-16.448-14.8 16.511z" fill="#fff"/><path d="m96.482 191.245v-66.634h56.499v15.35h-38.207v10.422h37.296v15.094h-37.296v10.234h38.207v15.534z" fill="#2c6fb6"/><path d="m152.699 191.245 31.263-33.355-31.263-33.279h24.197l19.104 21.122 19.158-21.122h23.157v.526l-30.596 32.753 30.596 32.409v.946h-23.39l-19.442-21.331-19.244 21.331z" fill="#2c6fb6"/><path d="m93.419 39.42h36.636l12.869 29.22v-29.22h45.228l7.8 21.893 7.825-21.893h34.537v85.393h-182.522z" fill="#fff"/><g fill="#2c6fb6"><path d="m100.355 48.699-29.564 66.577h20.277l5.578-13.332h30.224l5.574 13.332h20.782l-29.442-66.577zm2.541 38.302 8.867-21.194 8.86 21.194z"/><path d="m152.949 115.264v-66.577l28.506.099 14.665 40.929 14.762-41.028h27.433v66.577l-17.652.155v-45.731l-16.663 45.576h-16.114l-17.009-45.731v45.731z"/></g></g><g fill-rule="nonzero"><g transform="translate(1139.67 2.899)"><path d="m91.27 233.52v-15.53c0-5.85-3.725-9.783-9.729-9.834-3.158-.05-6.418.932-8.697 4.399-1.707-2.744-4.397-4.399-8.179-4.399-2.638 0-5.225.777-7.245 3.676v-3.056h-5.385v24.744h5.438v-13.718c0-4.296 2.381-6.574 6.054-6.574 3.573 0 5.386 2.328 5.386 6.524v13.768h5.432v-13.718c0-4.296 2.485-6.574 6.058-6.574 3.677 0 5.435 2.328 5.435 6.524v13.768zm30.331-12.371v-12.373h-5.385v3.002c-1.709-2.225-4.295-3.622-7.813-3.622-6.938 0-12.371 5.435-12.371 12.993s5.434 12.989 12.371 12.989c3.518 0 6.104-1.396 7.813-3.625v3.007h5.385zm-20.03 0c0-4.35 2.845-7.921 7.505-7.921 4.451 0 7.453 3.416 7.453 7.921 0 4.501-3.002 7.918-7.453 7.918-4.66 0-7.505-3.57-7.505-7.918m135.215-13.024c1.911 0 3.681.332 5.308.995 1.629.663 3.037 1.577 4.227 2.738 1.189 1.166 2.116 2.536 2.787 4.12.674 1.588 1.01 3.307 1.01 5.17 0 1.858-.336 3.58-1.01 5.164-.671 1.589-1.598 2.961-2.787 4.125-1.189 1.159-2.598 2.069-4.227 2.731-1.627.666-3.396.997-5.308.997s-3.684-.331-5.309-.997c-1.63-.662-3.032-1.572-4.212-2.731-1.18-1.164-2.104-2.536-2.777-4.125-.673-1.584-1.008-3.306-1.008-5.164 0-1.863.335-3.582 1.008-5.17.673-1.584 1.598-2.954 2.777-4.12 1.18-1.161 2.582-2.075 4.212-2.738 1.625-.663 3.397-.995 5.309-.995m0 5.092c-1.103 0-2.128.193-3.075.581-.945.388-1.766.927-2.454 1.626s-1.234 1.536-1.628 2.507c-.396.974-.594 2.044-.594 3.218 0 1.17.198 2.242.594 3.215.394.972.94 1.81 1.628 2.504.688.7 1.509 1.241 2.454 1.63.947.386 1.973.584 3.075.584 1.101 0 2.128-.198 3.073-.584.947-.389 1.77-.93 2.467-1.63.697-.694 1.246-1.532 1.641-2.504.398-.973.596-2.045.596-3.215 0-1.174-.197-2.244-.596-3.218-.395-.971-.943-1.808-1.641-2.507s-1.52-1.238-2.467-1.626c-.945-.387-1.972-.581-3.073-.581m-85.893 7.932c-.049-7.713-4.811-12.993-11.748-12.993-7.247 0-12.318 5.28-12.318 12.993 0 7.866 5.278 12.989 12.68 12.989 3.727 0 7.143-.933 10.146-3.468l-2.64-3.984c-2.068 1.655-4.709 2.588-7.193 2.588-3.471 0-6.627-1.605-7.404-6.055h18.375c.053-.674.102-1.348.102-2.07m-18.424-2.175c.568-3.572 2.74-6.004 6.572-6.004 3.467 0 5.693 2.174 6.262 6.004zm41.094-3.884c-1.501-.931-4.557-2.12-7.714-2.12-2.949 0-4.707 1.085-4.707 2.897 0 1.658 1.861 2.122 4.192 2.433l2.534.361c5.385.778 8.645 3.055 8.645 7.402 0 4.713-4.14 8.074-11.284 8.074-4.039 0-7.765-1.032-10.714-3.21l2.535-4.19c1.812 1.396 4.504 2.588 8.231 2.588 3.675 0 5.642-1.084 5.642-3.003 0-1.397-1.398-2.171-4.348-2.587l-2.538-.364c-5.538-.776-8.539-3.26-8.539-7.296 0-4.916 4.039-7.92 10.302-7.92 3.932 0 7.504.882 10.09 2.587zm25.867-1.396h-8.8v11.183c0 2.483.88 4.139 3.57 4.139 1.397 0 3.158-.467 4.765-1.397l1.551 4.606c-1.709 1.189-4.399 1.914-6.728 1.914-6.368 0-8.593-3.418-8.593-9.162v-11.282h-5.021v-4.918h5.021l-.002-7.503h5.437v7.503h8.8zm18.627-5.538c1.09 0 2.641.208 3.832.674l-1.658 5.072c-1.139-.466-2.277-.623-3.362-.623-3.521 0-5.28 2.277-5.28 6.368v13.873h-5.383v-24.744h5.334v3.002c1.396-2.175 3.412-3.622 6.517-3.622m37.267 21.759c.346 0 .673.067.977.193.304.132.568.304.795.53.227.224.408.481.539.786.129.299.196.618.196.951 0 .34-.067.659-.196.956-.131.299-.313.558-.539.779-.227.224-.491.4-.795.531-.304.132-.631.198-.977.198-.354 0-.684-.066-.992-.198-.309-.131-.575-.308-.801-.531-.225-.222-.4-.48-.534-.779-.128-.297-.194-.616-.194-.956 0-.333.066-.652.194-.951.134-.305.31-.563.534-.786.226-.227.492-.398.801-.53.309-.125.639-.193.992-.193m0 4.385c.268 0 .514-.052.742-.152.232-.1.432-.237.604-.409.174-.172.309-.379.408-.614.098-.231.148-.48.148-.748 0-.264-.051-.512-.148-.743-.1-.234-.234-.442-.408-.613-.172-.173-.371-.31-.604-.406-.229-.101-.475-.146-.742-.146-.27 0-.521.046-.758.146-.234.097-.438.233-.611.406-.174.171-.309.379-.407.613-.101.231-.148.479-.148.743 0 .268.048.517.148.748.099.235.233.442.407.614s.377.31.611.409c.237.1.489.152.758.152m.147-3.073c.293 0 .519.066.68.198.156.127.236.302.236.531 0 .187-.063.346-.19.465-.126.128-.308.203-.537.229l.745.867h-.584l-.693-.861h-.224v.861h-.487v-2.29zm-.568.425v.614h.56c.129 0 .232-.026.309-.076.074-.051.115-.128.115-.233 0-.101-.041-.178-.115-.229-.076-.049-.18-.075-.309-.075h-.56z" fill="#231f20"/><path d="m110.137 19.948h81.637v146.708h-81.637z" fill="#7773b4"/><path d="m115.32 93.302c0-29.764 13.936-56.27 35.635-73.354-15.871-12.493-35.893-19.948-57.659-19.948-51.526 0-93.296 41.772-93.296 93.302 0 51.528 41.77 93.303 93.296 93.303 21.767 0 41.788-7.456 57.659-19.948-21.699-17.086-35.635-43.591-35.635-73.355" fill="#e91d25"/><g fill="#119fda"><path d="m293.011 151.118v-3.003h1.208v-.611h-3.081v.611h1.21v3.003zm5.988 0v-3.621h-.946l-1.089 2.489-1.087-2.489h-.946v3.621h.668v-2.733l1.021 2.356h.69l1.02-2.362v2.739z"/><path d="m301.911 93.302c0 51.528-41.771 93.303-93.297 93.303-21.765 0-41.788-7.456-57.659-19.948 21.7-17.086 35.635-43.591 35.635-73.354 0-29.764-13.935-56.27-35.635-73.354 15.871-12.493 35.895-19.948 57.659-19.948 51.526 0 93.297 41.771 93.297 93.301"/></g></g><g transform="translate(662.886 2.365)"><path d="m138.327 25.055h102.536v184.261h-102.536z" fill="#f16522"/><path d="m144.838 117.185c0-37.381 17.503-70.674 44.758-92.131-19.933-15.691-45.083-25.054-72.42-25.054-64.715 0-117.176 52.465-117.176 117.185 0 64.718 52.461 117.185 117.176 117.185 27.337 0 52.487-9.362 72.42-25.055-27.255-21.456-44.758-54.748-44.758-92.13" fill="#e41b24"/><path d="m379.191 117.185c0 64.718-52.462 117.185-117.176 117.185-27.337 0-52.487-9.362-72.42-25.055 27.256-21.457 44.758-54.749 44.758-92.13s-17.502-70.674-44.758-92.131c19.933-15.691 45.083-25.054 72.42-25.054 64.714 0 117.176 52.465 117.176 117.185" fill="#f89e1c"/><path d="m368.01 189.8v-3.772h1.522v-.769h-3.874v.769h1.521v3.772zm7.522 0v-4.549h-1.188l-1.365 3.129-1.366-3.129h-1.188v4.549h.838v-3.431l1.281 2.958h.87l1.28-2.966v3.438h.838z" fill="#fff"/></g><path d="m179.684 2.706-61.963 147.822h-40.42l-30.488-117.972c-1.854-7.264-3.463-9.927-9.092-12.987-9.191-4.987-24.373-9.667-37.721-12.57l.904-4.292h65.068c8.293 0 15.75 5.52 17.637 15.071l16.1 85.541 39.799-100.617h40.176zm158.385 99.557c.156-39.01-53.955-41.162-53.58-58.594.115-5.301 5.164-10.94 16.221-12.377 5.479-.721 20.576-1.269 37.699 6.611l6.717-31.344c-9.203-3.342-21.041-6.559-35.768-6.559-37.799 0-64.402 20.095-64.621 48.87-.25 21.276 18.982 33.151 33.475 40.223 14.904 7.248 19.902 11.896 19.846 18.377-.105 9.917-11.887 14.293-22.895 14.465-19.225.298-30.379-5.201-39.268-9.332l-6.93 32.384c8.93 4.1 25.422 7.671 42.52 7.854 40.182 0 66.459-19.845 66.584-50.578m99.809 48.265h35.365l-30.875-147.822h-32.639c-7.342 0-13.535 4.272-16.271 10.841l-57.383 136.981h40.148l7.975-22.081h49.063zm-42.666-52.374 20.127-55.508 11.582 55.508zm-160.893-95.448-31.621 147.822h-38.238l31.633-147.822z" fill="#1434cb" transform="translate(1539.757 45.696)"/><g transform="translate(2925.973 2.466)"><path d="m325.441-0h-207.525c-64.854 0-117.916 53.063-117.916 117.911 0 64.85 53.063 117.912 117.916 117.912h207.525c64.85 0 117.908-53.063 117.908-117.912 0-64.849-53.058-117.911-117.908-117.911z" fill="#fff"/><path d="m325.441 9.548c14.561 0 28.709 2.893 42.037 8.553 12.91 5.481 24.463 13.32 34.484 23.287 9.967 9.962 17.805 21.578 23.291 34.488 5.656 13.325 8.549 27.474 8.549 42.036 0 14.56-2.893 28.713-8.549 42.037-5.486 12.91-13.324 24.466-23.291 34.488-9.963 9.967-21.574 17.806-34.484 23.286-13.328 5.661-27.477 8.553-42.037 8.553h-207.525c-14.563 0-28.711-2.892-42.035-8.553-12.91-5.48-24.471-13.319-34.492-23.286-9.963-9.963-17.803-21.578-23.283-34.488-5.664-13.324-8.553-27.478-8.553-42.037 0-14.563 2.889-28.711 8.553-42.036 5.48-12.91 13.32-24.466 23.283-34.488 9.965-9.966 21.582-17.806 34.492-23.287 13.324-5.66 27.473-8.553 42.035-8.553zm0-9.548h-207.525c-64.854 0-117.916 53.063-117.916 117.911 0 64.85 53.063 117.912 117.916 117.912h207.525c64.85 0 117.908-53.063 117.908-117.912 0-64.849-53.058-117.911-117.908-117.911z" fill="#3d4144"/><g fill="#3d4144" transform="translate(200.102 73.871)"><path d="m11.32 52.414v35.667h-11.32v-88.081h30.006c7.605 0 14.09 2.533 19.396 7.604 5.424 5.071 8.137 11.261 8.137 18.571 0 7.489-2.713 13.679-8.137 18.69-5.246 5.011-11.732 7.489-19.396 7.489h-18.686zm0-41.567v30.716h18.926c4.477 0 8.254-1.529 11.201-4.537 3.004-3.008 4.537-6.665 4.537-10.792 0-4.067-1.533-7.664-4.537-10.671-2.947-3.123-6.664-4.656-11.201-4.656h-18.926z"/><path d="m87.136 25.825c8.369 0 14.973 2.239 19.809 6.72s7.25 10.611 7.25 18.391v37.146h-10.787v-8.369h-.471c-4.66 6.896-10.91 10.313-18.693 10.313-6.66 0-12.201-1.943-16.682-5.896-4.482-3.947-6.721-8.843-6.721-14.738 0-6.245 2.357-11.201 7.074-14.857 4.717-3.713 11.021-5.541 18.865-5.541 6.725 0 12.262 1.238 16.566 3.712v-2.589c0-3.951-1.533-7.253-4.656-10.022-3.127-2.777-6.783-4.126-10.965-4.126-6.311 0-11.322 2.648-14.975 8.015l-9.967-6.246c5.484-7.966 13.621-11.913 24.353-11.913zm-14.623 43.745c0 2.947 1.238 5.426 3.775 7.365 2.475 1.947 5.422 2.947 8.783 2.947 4.777 0 9.023-1.769 12.73-5.306 3.717-3.537 5.605-7.664 5.605-12.436-3.537-2.772-8.434-4.187-14.738-4.187-4.602 0-8.434 1.119-11.5 3.302-3.122 2.301-4.655 5.068-4.655 8.315z"/><path d="m175.745 27.768-37.734 86.786h-11.672l14.029-30.365-24.875-56.421h12.32l17.92 43.271h.24l17.447-43.271z"/></g><g transform="translate(67.506 67.442)"><path d="m98.888 51.649c0-3.691-.332-7.22-.943-10.62h-47.449v19.455l27.328.008c-1.107 6.477-4.678 11.992-10.143 15.67v12.624h16.27c9.496-8.788 14.937-21.784 14.937-37.137z" fill="#547ebe"/><path d="m67.687 76.161c-4.529 3.055-10.355 4.845-17.178 4.845-13.18 0-24.355-8.882-28.359-20.848h-16.775v13.013c8.314 16.499 25.393 27.819 45.135 27.819 13.641 0 25.105-4.485 33.445-12.209z" fill="#34a852"/><path d="m20.57 50.5c0-3.363.561-6.609 1.58-9.664v-13.017h-16.775c-3.439 6.818-5.375 14.521-5.375 22.681 0 8.159 1.941 15.857 5.375 22.68l16.775-13.017c-1.02-3.054-1.58-6.301-1.58-9.663z" fill="#f8ba16"/><path d="m50.509 19.989c7.445 0 14.113 2.567 19.381 7.574l14.414-14.401c-8.758-8.155-20.172-13.162-33.795-13.162-19.732 0-36.82 11.321-45.135 27.819l16.775 13.017c4.005-11.966 15.181-20.847 28.36-20.847z" fill="#e84336"/></g></g><g transform="translate(2451.173 .509)"><path d="m340.805 4.993 3.803.006c1.044.004 2.087.019 3.137.044 1.902.05 4.137.155 6.29.545 1.991.359 3.679.914 5.312 1.743 3.3 1.673 5.981 4.356 7.653 7.657.828 1.628 1.379 3.314 1.737 5.312.384 2.131.493 4.374.539 6.285.03 1.039.046 2.082.049 3.135.011 1.263.011 2.535.011 3.805v172.591c0 1.268 0 2.535-.011 3.818-.003 1.041-.019 2.081-.049 3.12-.05 1.913-.155 4.153-.539 6.301-.312 1.843-.897 3.627-1.737 5.298-1.684 3.298-4.364 5.98-7.662 7.662-1.671.843-3.459 1.431-5.303 1.742-2.076.332-4.174.513-6.275.539-1.049.025-2.097.041-3.16.041-1.264.009-2.536.009-3.799.009h-307.324c-1.254 0-2.507 0-3.773-.009-1.05 0-2.098-.016-3.121-.041-2.105-.026-4.209-.207-6.289-.539-1.853-.309-3.646-.898-5.318-1.747-1.639-.832-3.137-1.921-4.432-3.225-1.301-1.299-2.387-2.796-3.215-4.433-.845-1.674-1.433-3.465-1.742-5.313-.341-2.079-.522-4.181-.546-6.286-.024-1.041-.039-2.083-.044-3.125l-.006-3.046v-174.121l.006-3.04c.005-1.043.02-2.087.044-3.135.05-1.902.155-4.138.546-6.296.307-1.846.896-3.635 1.742-5.306 1.673-3.298 4.354-5.979 7.652-7.653 1.67-.845 3.46-1.429 5.306-1.738 2.083-.34 4.187-.522 6.296-.543 1.044-.025 2.087-.041 3.125-.046l3.813-.011z" fill="#fff"/><g fill="#000"><path d="m340.805 4.993 3.803.006c1.044.004 2.087.019 3.137.044 1.902.05 4.137.155 6.29.545 1.991.359 3.679.914 5.312 1.743 3.3 1.673 5.981 4.356 7.653 7.657.828 1.628 1.379 3.314 1.737 5.312.384 2.131.493 4.374.539 6.285.03 1.039.046 2.082.049 3.135.011 1.263.011 2.535.011 3.805v172.591c0 1.268 0 2.535-.011 3.818-.003 1.041-.019 2.081-.049 3.12-.05 1.913-.155 4.153-.539 6.301-.312 1.843-.897 3.627-1.737 5.298-1.684 3.298-4.364 5.98-7.662 7.662-1.671.843-3.459 1.431-5.303 1.742-2.076.332-4.174.513-6.275.539-1.049.025-2.097.041-3.16.041-1.264.009-2.536.009-3.799.009h-307.324c-1.254 0-2.507 0-3.773-.009-1.05 0-2.098-.016-3.121-.041-2.105-.026-4.209-.207-6.289-.539-1.853-.309-3.646-.898-5.318-1.747-1.639-.832-3.137-1.921-4.432-3.225-1.301-1.299-2.387-2.796-3.215-4.433-.845-1.674-1.433-3.465-1.742-5.313-.341-2.079-.522-4.181-.546-6.286-.024-1.041-.039-2.083-.044-3.125l-.006-3.046v-174.121l.006-3.04c.005-1.043.02-2.087.044-3.135.05-1.902.155-4.138.546-6.296.307-1.846.896-3.635 1.742-5.306 1.673-3.298 4.354-5.979 7.652-7.653 1.67-.845 3.46-1.429 5.306-1.738 2.083-.34 4.187-.522 6.296-.543 1.044-.025 2.087-.041 3.125-.046l3.813-.011zm0-4.993h-307.283l-3.839.007c-1.078.004-2.156.019-3.234.048-2.358.033-4.71.24-7.039.619-2.328.401-4.584 1.144-6.693 2.208-4.232 2.164-7.675 5.606-9.836 9.839-1.066 2.109-1.81 4.365-2.207 6.695-.385 2.327-.593 4.681-.624 7.039-.024 1.073-.039 2.151-.044 3.229l-.006 3.841v172.591l.006 3.844c.005 1.078.02 2.156.051 3.229.063 2.347.203 4.713.623 7.035.42 2.36 1.112 4.552 2.201 6.694 2.152 4.24 5.6 7.687 9.839 9.84 2.144 1.092 4.334 1.781 6.69 2.206 2.322.414 4.688.555 7.039.619 1.078.03 2.153.046 3.234.046 1.278.009 2.562.009 3.839.009h307.283c1.276 0 2.561 0 3.839-.009 1.078-.007 2.156-.021 3.235-.046 2.346-.064 4.712-.205 7.039-.619 2.327-.399 4.581-1.144 6.688-2.206 4.242-2.151 7.689-5.599 9.841-9.84 1.092-2.143 1.781-4.334 2.201-6.694.42-2.322.555-4.688.619-7.035.03-1.078.046-2.156.05-3.229.01-1.283.01-2.561.01-3.844v-172.591c0-1.284 0-2.562-.01-3.846-.004-1.076-.02-2.153-.05-3.229-.03-2.358-.236-4.712-.619-7.039-.395-2.33-1.138-4.586-2.201-6.696-2.157-4.237-5.602-7.683-9.841-9.838-2.107-1.064-4.361-1.807-6.688-2.208-2.329-.379-4.683-.586-7.039-.619-1.084-.03-2.162-.04-3.235-.05z"/><path d="m111.606 71.9c3.454-4.19 5.785-10.009 5.151-15.812-4.992.205-11.026 3.336-14.582 7.509-3.22 3.704-6.006 9.635-5.236 15.321 5.552.43 11.211-2.829 14.667-7.018zm14.343 36.812c-.11-12.544 10.233-18.581 10.713-18.88-5.835-8.488-14.888-9.665-18.112-9.794-7.714-.765-15.065 4.542-18.964 4.542-3.915 0-9.937-4.423-16.347-4.289-8.406.121-16.159 4.887-20.487 12.412-8.712 15.191-2.211 37.626 6.294 49.912 4.166 6.016 9.117 12.775 15.642 12.529 6.28-.244 8.637-4.063 16.226-4.063 7.572-.009 9.715 4.054 16.328 3.939 6.751-.146 11.035-6.141 15.172-12.186 4.758-6.965 6.73-13.729 6.83-14.068-.136-.09-13.146-5.052-13.295-20.054zm80.355-36.818c-2.517-2.425-5.762-4.312-9.645-5.611-3.85-1.283-8.473-1.9327818-13.738-1.9327818-3.374-.0132182-6.746.1607818-10.101.5257818-2.796.312-5.583.704-8.356 1.174l-.813.139v88.197h8.053v-37.156c2.709.463 5.814.708 9.24.708 4.558 0 8.826-.584 12.69-1.727 3.718-1.058 7.18-2.863 10.174-5.307 2.885-2.412 5.203-5.426 6.794-8.831 1.648-3.495 2.487-7.603 2.487-12.227 0-3.823-.605-7.262-1.782-10.224-1.141-2.881-2.839-5.507-5.003-7.728zm-7.4 33.689c-4.134 3.464-9.982 5.221-17.406 5.221-2.044 0-3.974-.089-5.748-.254-1.362-.124-2.714-.351-4.042-.68v-37.506c1.063-.194 2.381-.379 3.928-.543 1.964-.21 4.323-.315 7.029-.315 3.107-.032 6.203.37 9.201 1.192 2.554.703 4.953 1.878 7.074 3.464 1.931 1.498 3.449 3.446 4.504 5.791 1.063 2.377 1.597 5.212 1.597 8.422-.005 6.665-2.071 11.783-6.137 15.208zm62.314 40.546c-.09-2.495-.124-5.002-.124-7.498v-24.516c0-2.907-.294-5.871-.869-8.817-.554-2.93-1.688-5.721-3.335-8.208-1.637-2.456-3.928-4.483-6.794-6.03-2.866-1.543-6.591-2.322-11.078-2.322-3.274 0-6.475.424-9.495 1.268-3.172.914-6.172 2.339-8.882 4.224l-.653.455 2.721 6.365.983-.665c2.147-1.441 4.496-2.559 6.97-3.314 2.5-.783 5.102-1.183 7.722-1.189 3.356 0 6.036.609 7.948 1.807 1.942 1.214 3.406 2.717 4.35 4.473.982 1.813 1.626 3.74 1.911 5.741.304 2.083.448 3.944.448 5.542v.708c-11.936-.055-21.257 1.932-27.446 5.921-6.495 4.184-9.79 10.14-9.79 17.697 0 2.176.389 4.368 1.158 6.535.778 2.19 1.962 4.152 3.51 5.83 1.558 1.697 3.569 3.081 5.975 4.113 2.397 1.044 5.218 1.568 8.367 1.568 4.461.074 8.85-1.126 12.651-3.459 1.658-1.023 3.131-2.188 4.388-3.439.535-.539 1.048-1.104 1.532-1.688h.311l.739 7.157h7.763l-.215-1.146c-.428-2.349-.683-4.726-.766-7.113zm-8.178-12.561c0 .858-.203 2.037-.592 3.45-.522 1.529-1.251 2.979-2.168 4.309-2.04 2.985-5.001 5.222-8.432 6.365-2.082.685-4.265 1.017-6.455.982-1.445.001-2.88-.243-4.243-.724-1.324-.46-2.538-1.188-3.569-2.136-1.08-1.022-1.934-2.258-2.508-3.629-.633-1.464-.952-3.275-.952-5.383 0-3.449.928-6.25 2.751-8.297 1.962-2.181 4.426-3.852 7.179-4.867 3.118-1.173 6.382-1.918 9.7-2.212 3.087-.298 6.188-.433 9.289-.404zm62.828-43.397-15.026 40.853c-.938 2.466-1.813 4.951-2.612 7.372-.389 1.208-.758 2.353-1.121 3.441h-.285c-.377-1.192-.759-2.384-1.148-3.571-.779-2.396-1.617-4.746-2.477-6.988l-16.07-41.106h-8.591l22.989 59.1c.604 1.422.693 2.076.693 2.341 0 .08-.029.563-.704 2.361-1.255 3.206-2.893 6.25-4.878 9.066-1.841 2.505-3.528 4.542-5.031 6.045-1.747 1.747-3.549 3.179-5.383 4.264-1.87 1.103-3.578 1.996-5.09 2.67l-.87.39 2.802 6.804.889-.329c.729-.274 2.096-.899 4.172-1.911 2.097-1.034 4.419-2.672 6.895-4.888 2.193-1.932 4.144-4.127 5.801-6.535 1.699-2.437 3.396-5.297 5.063-8.471 1.647-3.172 3.296-6.775 4.903-10.725 1.607-3.969 3.335-8.406 5.117-13.174l18.565-47.008h-8.603z"/></g></g></g></g></svg>