<svg width="384" height="105" viewBox="0 0 384 105" fill="none" xmlns="http://www.w3.org/2000/svg">
<g clip-path="url(#clip0_168_9721)">
<path d="M363.885 91.035V46.5489C363.885 43.3887 362.676 40.9578 360.258 39.4992C357.84 38.0407 354.938 37.3114 351.31 37.3114C349.617 37.3114 347.924 37.5545 346.231 37.7976C344.539 38.0407 343.329 38.2838 342.12 38.77V91.035H322.773V31.2341C326.159 30.0186 330.512 28.8031 335.591 28.0739C340.669 27.1015 346.231 26.8584 352.035 26.8584C362.193 26.8584 369.931 28.56 375.494 31.7203C380.814 34.8805 383.474 39.9854 383.474 46.5489V91.278H363.885V91.035Z" fill="#0097DB"/>
<path d="M191.942 91.0347V27.5874C198.472 27.5874 205.001 27.8305 211.289 28.8029V91.2778H191.942V91.0347Z" fill="#0097DB"/>
<path d="M212.256 10.5711C212.256 12.7589 211.288 14.9467 209.112 16.4053C206.935 18.107 204.517 18.8362 201.373 18.8362C198.471 18.8362 195.811 18.107 193.876 16.4053C191.7 14.7037 190.732 12.7589 190.732 10.5711C190.732 8.38323 191.7 6.1954 193.876 4.73684C196.053 3.03519 198.471 2.30591 201.373 2.30591C204.275 2.30591 206.935 3.03519 209.112 4.73684C211.288 6.43849 212.256 8.38323 212.256 10.5711Z" fill="#0097DB"/>
<path d="M179.849 39.2556C177.189 38.5263 174.287 38.0401 171.385 37.797C168.241 37.797 165.823 38.0401 163.888 39.0125V91.2775H144.541V31.2335C148.169 29.775 152.28 28.5595 157.116 27.8302C161.953 27.1009 167.757 26.6147 174.77 26.6147C176.221 26.6147 177.914 26.6147 179.607 26.6147C181.3 26.6147 182.751 26.8578 183.718 26.8578L179.849 39.2556Z" fill="#0097DB"/>
<path d="M43.4549 58.461C43.4549 55.3008 43.2131 52.6267 42.7294 49.9527C42.2457 47.2787 41.2784 45.0909 40.0692 43.1461C38.86 41.2014 37.409 39.7428 35.4743 38.5273C33.5396 37.555 31.3631 36.8257 28.4611 36.8257C24.8336 36.8257 21.9315 37.3119 19.755 38.2843V79.6101C20.4805 80.0962 21.6897 80.3393 22.8989 80.5824C24.1081 80.8255 25.5591 80.8255 27.4938 80.8255C33.056 80.8255 36.9253 78.8808 39.5855 74.7482C42.2457 70.8587 43.4549 65.2676 43.4549 58.461ZM63.2854 57.4886C63.2854 68.1847 60.1415 76.6929 53.8538 82.5272C47.5661 88.6045 38.3763 91.5216 26.2846 91.5216C20.2387 91.5216 14.9183 91.0354 10.5653 90.3061C6.21225 89.3338 2.82656 88.3614 0.408203 86.9029V0.118652H19.755V29.2898C21.4479 28.5605 23.3826 28.0743 25.8009 27.5882C28.2193 27.102 30.8795 26.8589 34.2651 26.8589C38.6182 26.8589 42.4875 27.5882 46.1151 29.0467C49.7426 30.5053 52.8865 32.6931 55.3048 35.3671C57.965 38.0412 59.8997 41.2014 61.3507 45.0909C62.5599 48.7373 63.2854 52.8698 63.2854 57.4886Z" fill="#0097DB"/>
<path d="M114.071 38.5263C113.104 38.0401 112.137 37.797 110.927 37.5539C109.718 37.3108 108.267 37.0677 106.333 37.0677C100.77 37.0677 96.6591 39.0125 93.999 42.902C91.3388 46.7915 89.8878 52.6257 89.8878 60.1616C89.8878 74.5041 95.2081 81.7968 105.849 81.7968C107.3 81.7968 108.993 81.5538 110.444 81.3107C111.895 81.0676 113.104 80.5814 114.071 80.0952V38.5263ZM133.66 91.0344C133.66 91.0344 103.189 91.5206 100.287 91.5206C95.9336 91.5206 91.8224 90.7913 87.9531 89.3327C84.3255 87.8742 80.9399 85.9294 78.2797 83.2554C75.6195 80.5814 73.443 77.4212 71.9919 73.7748C70.5409 70.1284 69.8154 65.7527 69.8154 61.1339C69.8154 56.029 70.5409 51.1671 72.2338 47.0346C73.6848 42.902 76.1031 39.2556 79.247 36.0954C82.3909 33.1783 86.2602 30.7473 91.0969 29.0457C95.6918 27.344 101.254 26.6147 107.542 26.6147C113.104 26.6147 118.182 27.1009 122.777 27.8302C127.372 28.8026 131 29.2888 133.66 30.7473V91.0344Z" fill="#0097DB"/>
<path d="M268.362 104.406C293.513 103.919 313.585 83.0134 312.86 57.9748C312.618 49.2234 309.958 41.2014 305.605 34.3948C296.898 34.3948 287.951 36.8257 284.807 37.7981C290.853 42.6599 294.722 50.1958 294.964 58.461C295.206 70.1294 288.192 80.0963 278.277 84.4719C277.31 82.041 276.826 81.0686 275.859 78.6377C265.944 84.4719 251.675 90.7924 235.23 91.5216C243.695 99.7868 255.303 104.649 268.362 104.406Z" fill="#0097DB"/>
<path d="M266.187 13.4883C241.036 13.9745 220.963 34.8805 221.689 59.9191C221.931 68.6704 224.591 76.6925 228.944 83.4991C237.65 83.4991 246.598 81.0681 249.742 80.0958C243.696 75.2339 239.827 67.698 239.585 59.4329C239.343 47.7644 246.356 37.7976 256.271 33.4219C257.239 35.8528 257.722 36.8252 258.69 39.2562C268.605 33.4219 282.873 27.1015 299.318 26.3722C290.854 18.3502 279.004 13.2452 266.187 13.4883Z" fill="#0097DB"/>
</g>
<defs>
<clipPath id="clip0_168_9721">
<rect width="382.825" height="104.287" fill="white" transform="translate(0.410156 0.119141)"/>
</clipPath>
</defs>
</svg>
